<svg width="522" height="128" viewBox="0 0 522 128" fill="none" xmlns="http://www.w3.org/2000/svg"><path d="M98.4384 16.5933c-4.4071.4212-5.7977 4.6729-6.0664 10.1426-.2687 5.4698-1.8543 22.0049-1.8543 22.0049s-.3792 4.9037-4.5437 4.7213c-3.1496-.1622-3.993-4.7056-5.5982-11.2545-1.6254-6.5414-7.7194-34.7727-7.7194-34.7727s-1.707-9.07937-7.1635-7.171407C60.0364 2.17146 60.919 8.68495 61.4566 10.9604c.497 2.2904 7.1796 43.8453 7.1796 43.8453s.5603 4.6485-2.5284 5.491c-2.8717.8088-4.9192-3.1945-4.9192-3.1945L36.0481 15.4855s-4.562-7.64645-9.6468-4.8257c-6.0701 3.3964-1.2505 11.7645-1.2505 11.7645l22.0659 40.4461s2.4557 3.7351-1.1786 6.0642c-2.9909 1.9504-7.0149-1.8798-7.0149-1.8798L10.576 41.5144S5.20596 36.993 1.53889 40.385c-3.50715 3.2626.00244 8.4744.54139 9.2784.53895.804 35.77772 44.534 35.77772 44.534l23.1835-17.9419c3.6304-2.9815 10.3382-7.7352 14.5702-3.2584 3.9873 4.2407 2.9644 8.496-2.1233 14.0029-4.4462 4.8018-15.5671 14.322-20.5575 19.396 0 0-3.4228 2.6-.5036 7.121 7.4778 13.055 24.0507 17.972 38.4435 11.908 7.3849-3.114 13.3242-8.61 16.1552-15.497 2.071-4.785 3.004-7.816 2.594-15.2517-1.206-22.1071-6.202-69.5876-6.202-69.5876s-.585-8.8885-4.9851-8.4467l.0055-.0487ZM187.199 43.3548c17.467 0 29.648 13.5341 29.648 31.656 0 18.0071-12.641 31.6562-30.107 31.6562-7.814 0-14.134-2.868-18.616-7.7996v6.3086h-15.743V21.3333h17.007v28.6739c4.482-4.2438 10.572-6.6524 17.811-6.6524Zm-2.758 48.2868c8.964 0 15.514-6.9964 15.514-16.6308 0-9.6345-6.55-16.7456-15.514-16.7456-9.422 0-15.742 6.8818-15.742 16.7456s6.32 16.6308 15.742 16.6308ZM239.781 80.172c1.953 7.914 8.158 12.3871 16.202 12.3871 7.47 0 11.262-2.6379 13.905-7.4552l12.985 8.6022c-4.712 6.8819-12.526 12.9609-27.349 12.9609-19.65 0-32.406-13.6491-32.406-31.6562 0-17.5484 13.905-31.656 31.257-31.656 19.535 0 31.141 15.2545 31.141 30.3943 0 2.638-.115 4.9319-.345 6.4229h-45.39Zm-.23-11.1254h29.992c-1.609-7.914-6.895-12.8459-14.709-12.8459s-13.559 4.5878-15.283 12.8459ZM316.297 106.667c-13.445 0-23.097-5.506-26.545-15.943l14.364-5.5054c1.609 5.276 5.976 8.3728 12.756 8.3728 5.056 0 8.043-2.0645 8.043-5.5054 0-10.5519-32.29-5.5054-32.29-26.2652 0-11.4695 9.423-18.466 24.132-18.466 12.065 0 20.799 4.9319 23.327 13.3047l-14.364 5.5054c-1.494-4.1291-4.712-6.1936-9.193-6.1936-4.597 0-7.125 1.8352-7.125 4.9319 0 9.7491 32.405 3.8997 32.405 26.1506 0 12.1577-9.997 19.6132-25.51 19.6132ZM357.703 105.176V59.1828h-12.87V44.7312h7.699c4.137 0 6.205-2.1792 6.205-6.5377v-9.405h16.548v15.9427h12.18v14.4516H374.71v45.9932h-17.007ZM455.1 75.1254v13.3047h-8.733v16.7459h-16.892V88.4301h-38.611V76.043l38.726-50.4659h16.777v49.5483h8.733Zm-25.51 0V47.3692l-21.144 27.7562h21.144ZM492.834 106.667c-18.271 0-28.613-10.5523-28.613-27.4125V44.7312h16.892v35.2115c0 6.9964 4.482 11.5842 11.721 11.5842 7.24 0 11.607-4.5878 11.607-11.5842V44.7312h17.007v34.5233c0 16.8602-10.457 27.4125-28.614 27.4125Z" fill="#fff"/></svg>